<?xml version="1.0" standalone="no"?>
<!DOCTYPE svg PUBLIC "-//W3C//DTD SVG 20010904//EN"
 "http://www.w3.org/TR/2001/REC-SVG-20010904/DTD/svg10.dtd">
<svg version="1.0" xmlns="http://www.w3.org/2000/svg"
 width="403.000000pt" height="417.000000pt" viewBox="0 0 403.000000 417.000000"
 preserveAspectRatio="xMidYMid meet">
<metadata>
Created by potrace 1.13, written by Peter Selinger 2001-2015
</metadata>
<g transform="translate(0.000000,417.000000) scale(0.100000,-0.100000)"
fill="#000000" stroke="none">
<g>
<path d="M0 2085 l0 -2085 1045 0 1045 0 -37 67 c-99 182 -232 360 -374 502
-213 213 -373 314 -804 509 -201 91 -382 128 -773 158 -106 8 -108 14 -12 60
49 24 60 33 60 54 0 14 4 30 8 36 6 9 285 131 338 148 14 4 27 -1 44 -19 26
-28 21 -41 -20 -48 -14 -2 -2 -5 25 -6 31 -1 69 -10 99 -26 54 -27 110 -32
180 -14 39 10 49 8 92 -14 60 -31 102 -73 118 -119 l11 -35 75 30 c337 134
678 17 1035 -355 44 -45 95 -100 114 -122 37 -44 37 -38 -5 -216 -14 -58 -29
-137 -34 -175 -5 -39 -12 -78 -16 -88 -4 -11 -1 -17 9 -17 17 0 43 90 33 115
-3 9 8 72 24 141 17 69 30 133 30 143 0 11 40 47 102 93 446 329 867 580 1271
757 43 18 76 35 74 37 -4 4 -128 -40 -202 -71 -131 -55 -398 -188 -490 -245
-37 -22 -68 -40 -70 -40 -21 0 -394 -251 -549 -368 l-118 -91 -61 82 c-78 106
-243 269 -335 330 -201 134 -432 194 -646 167 -49 -6 -91 -8 -94 -5 -8 8 35
43 146 116 l93 62 22 -20 c51 -47 87 -58 192 -58 90 1 106 4 155 29 68 35 146
115 161 166 l11 37 172 6 c330 13 502 56 641 162 l48 37 18 -23 c12 -15 19
-41 19 -70 0 -86 12 -103 113 -158 51 -27 107 -61 126 -75 53 -40 65 -35 57
22 -4 26 -10 92 -15 147 -5 56 -14 111 -22 123 -7 12 -36 31 -64 43 -62 26
-105 65 -105 96 0 21 5 23 44 23 228 0 515 -67 731 -170 84 -40 239 -133 268
-159 4 -4 -21 -37 -57 -74 -60 -62 -136 -161 -136 -180 0 -4 15 -14 33 -22 57
-24 118 -75 149 -126 17 -27 33 -49 34 -49 2 0 4 659 4 1465 l0 1465 -1323 0
c-1216 0 -1324 -1 -1346 -17 -22 -15 -25 -15 -36 0 -11 16 -69 17 -669 17
l-656 0 0 -2085z m1635 1869 c86 -108 159 -202 162 -210 26 -69 -157 151 -290
347 -73 108 -41 74 128 -137z m-191 149 c11 -15 80 -106 153 -202 127 -168
138 -190 96 -191 -6 0 -57 69 -114 153 -56 83 -117 173 -135 198 -46 64 -46
100 0 42z m-896 -133 c29 -27 36 -59 29 -132 -7 -74 -26 -98 -78 -98 -29 0
-42 6 -54 23 -19 30 -29 105 -21 151 13 69 78 98 124 56z m202 2 c38 -31 41
-180 4 -217 -9 -8 -33 -15 -54 -15 -59 0 -74 32 -71 151 2 85 65 126 121 81z
m152 1 c36 -32 15 -93 -32 -93 -46 0 -68 61 -34 94 20 21 43 20 66 -1z m-572
-113 c0 -100 -2 -120 -15 -120 -12 0 -15 18 -15 106 l0 106 -30 -7 c-38 -8
-39 7 -2 22 62 25 62 25 62 -107z m627 28 c-19 -29 -44 -71 -57 -92 -13 -22
-25 -35 -27 -29 -2 5 13 36 33 69 20 32 46 74 57 93 12 19 23 29 25 23 2 -6
-12 -35 -31 -64z m621 -106 c84 -126 92 -142 70 -142 -7 0 -37 42 -67 93 -30
50 -69 117 -88 147 -18 31 -33 59 -33 64 0 13 27 -24 118 -162z m-554 52 c23
-22 20 -70 -5 -87 -27 -19 -58 -10 -70 20 -13 34 -12 40 11 63 24 24 43 25 64
4z m1167 -184 c16 -9 19 -22 19 -93 0 -45 -7 -144 -15 -220 -7 -76 -11 -145
-8 -153 4 -12 12 -10 44 8 38 21 59 60 59 109 0 48 43 149 81 193 58 66 109
90 191 91 81 0 110 -18 152 -94 15 -29 35 -55 43 -58 9 -3 26 8 43 28 16 19
29 29 30 22 0 -23 -19 -61 -50 -96 -25 -29 -34 -53 -50 -136 -22 -114 -37
-150 -89 -204 -50 -53 -94 -72 -166 -71 -93 1 -125 20 -166 98 -19 36 -38 66
-43 66 -5 0 -28 -12 -51 -26 -41 -27 -42 -27 -52 -109 -18 -146 -75 -216 -181
-222 -69 -5 -116 19 -137 71 -27 63 -3 107 103 191 46 37 79 81 68 92 -2 2
-30 -10 -61 -28 -73 -41 -130 -44 -176 -10 -25 19 -33 21 -40 10 -26 -47 -74
-102 -108 -124 -66 -44 -155 -31 -195 29 -9 15 -20 26 -24 26 -4 0 -18 -20
-31 -45 -52 -98 -190 -113 -260 -28 -91 111 -56 397 64 517 56 56 138 67 206
28 25 -14 30 -13 80 12 70 34 100 33 144 -5 44 -39 45 -63 3 -75 -28 -8 -34
-16 -40 -49 -10 -60 -9 -250 2 -279 15 -40 63 -36 106 9 36 39 34 26 59 303 8
91 19 170 26 178 9 11 29 14 73 12 l61 -3 0 -75 c-1 -41 -5 -121 -9 -176 -5
-56 -6 -118 -2 -138 6 -31 11 -36 35 -36 16 0 40 9 53 20 42 33 58 90 68 248
11 167 16 189 39 195 31 9 82 7 102 -3z m-1873 -82 c-3 -8 -31 -15 -74 -18
-47 -3 -69 -9 -68 -17 1 -7 2 -31 3 -54 l1 -41 62 4 c39 2 63 -1 65 -8 4 -11
-48 -24 -99 -24 -26 0 -26 -1 -25 -66 1 -43 -2 -68 -10 -71 -17 -6 -21 17 -28
164 l-7 132 44 4 c101 9 140 7 136 -5z m567 -53 c15 -14 25 -36 25 -53 0 -34
-17 -42 -92 -42 -55 0 -65 -10 -43 -44 20 -30 55 -37 95 -18 39 19 53 6 21
-19 -33 -27 -93 -25 -127 4 -22 19 -28 34 -32 78 -4 49 -1 59 23 87 35 42 93
45 130 7z m-234 -14 c19 -19 29 -40 29 -59 0 -29 0 -29 -70 -34 -39 -3 -74 -8
-77 -12 -4 -3 2 -19 14 -34 24 -32 65 -40 98 -18 30 20 35 20 35 1 0 -17 -49
-45 -79 -45 -58 0 -101 49 -101 115 0 97 89 147 151 86z m-183 2 c-2 -9 -12
-17 -23 -19 -35 -5 -43 -30 -38 -115 5 -66 3 -79 -9 -79 -11 0 -17 16 -22 61
-11 107 -8 159 9 159 8 0 15 -5 15 -12 0 -8 6 -6 17 5 22 22 56 23 51 0z
m2368 -507 c58 -49 20 -146 -57 -146 -36 0 -89 48 -89 80 0 77 88 117 146 66z
m290 -81 c9 -8 18 -29 21 -47 16 -99 -148 -123 -172 -26 -20 81 90 134 151 73z
m-2179 -80 c12 -8 29 -39 37 -68 9 -28 20 -59 26 -67 9 -13 12 -13 23 1 36 48
143 67 192 35 31 -21 55 -72 55 -119 0 -19 -7 -78 -15 -133 -27 -181 -16 -234
49 -234 49 0 65 25 76 121 20 161 66 246 165 304 63 37 102 40 156 12 l47 -23
8 40 c9 39 11 41 50 44 22 2 52 -2 67 -7 27 -10 27 -11 27 -108 0 -53 -7 -154
-15 -223 -19 -165 -22 -220 -12 -220 16 0 52 24 75 49 38 41 52 85 62 189 16
165 41 214 149 283 54 35 98 37 160 8 l44 -20 46 22 c25 12 65 22 89 23 37 1
48 -4 73 -32 38 -42 37 -55 -5 -70 -25 -9 -36 -20 -40 -40 -11 -57 -18 -233
-11 -281 l7 -51 54 0 c48 0 56 3 64 24 18 47 30 144 39 305 5 89 12 165 15
168 9 10 133 16 139 7 3 -5 1 -63 -3 -129 -25 -363 -29 -338 43 -288 56 39 80
92 84 188 2 44 6 90 9 102 5 28 61 47 115 38 l40 -7 -3 -196 -3 -196 40 -11
c52 -15 55 -37 12 -80 -31 -31 -41 -35 -87 -35 -44 0 -56 4 -79 29 -15 16 -33
48 -41 70 -7 23 -16 44 -20 46 -4 2 -32 -14 -62 -36 -46 -32 -66 -56 -105
-126 -95 -171 -234 -275 -408 -307 -44 -8 -172 -17 -284 -20 l-203 -5 5 36
c11 63 11 63 206 63 263 0 366 33 475 151 46 50 95 143 82 156 -2 2 -31 -10
-64 -27 -40 -20 -74 -30 -105 -30 -46 0 -57 7 -94 66 -10 17 -16 14 -66 -37
-94 -97 -186 -100 -264 -9 -35 40 -63 52 -63 26 0 -18 -66 -76 -101 -88 -26
-9 -28 -13 -34 -96 -22 -292 -50 -373 -144 -422 -36 -19 -120 -17 -159 4 -60
31 -90 108 -59 151 17 22 37 12 37 -18 0 -27 24 -63 51 -78 29 -15 65 21 85
85 18 62 29 236 16 255 -8 12 -16 10 -45 -8 -32 -20 -67 -28 -67 -16 0 18 38
58 80 85 35 23 49 39 54 62 3 17 4 33 1 36 -2 3 -22 -11 -44 -31 -89 -81 -225
-55 -263 50 -12 33 -31 43 -44 22 -12 -20 -95 -49 -141 -49 -37 0 -50 5 -78
33 -43 43 -52 109 -31 240 24 144 22 173 -13 208 -33 33 -52 36 -75 13 -39
-38 -59 -119 -81 -319 -24 -223 -34 -245 -113 -245 -76 0 -77 2 -62 127 7 59
21 153 32 208 10 55 21 147 24 205 l6 105 -41 19 c-23 11 -41 24 -41 29 0 6
11 25 26 44 24 31 28 33 87 33 40 0 70 -6 84 -15z m1909 -727 l26 -51 -23 -18
c-12 -9 -35 -24 -49 -33 -25 -14 -28 -14 -48 5 l-22 19 35 55 c19 30 35 59 35
65 0 25 22 6 46 -42z m34 -118 c-51 -41 -64 -50 -72 -50 -19 0 -5 17 34 43 48
31 75 36 38 7z m69 -64 c19 -19 58 -45 87 -57 61 -24 60 -22 68 -149 2 -47 8
-94 12 -104 7 -19 6 -19 -27 1 -19 12 -65 38 -104 59 -38 20 -73 41 -77 48 -4
6 -8 27 -8 47 0 57 -10 96 -31 118 -25 27 -24 33 9 53 35 23 33 23 71 -16z
m-1329 -3 c30 -6 31 -8 25 -42 -4 -20 -9 -39 -11 -43 -3 -5 -101 -8 -219 -8
-220 0 -329 -9 -425 -36 -157 -45 -246 -124 -221 -196 6 -17 11 -35 11 -39 0
-15 -94 -10 -118 7 -46 32 -64 101 -41 161 43 115 147 176 354 207 42 6 607
-3 645 -11z m-265 -265 c4 -18 16 -50 27 -72 22 -44 26 -39 -67 -96 -38 -24
-112 -75 -164 -114 -65 -48 -96 -66 -99 -57 -10 29 -75 91 -118 111 l-45 22
46 49 c36 38 45 55 45 84 0 22 -6 38 -15 41 -24 10 -18 20 23 37 54 23 64 25
219 26 l141 1 7 -32z m-1164 -1474 c12 -15 10 -16 -19 -10 -41 10 -43 -8 -2
-23 33 -11 39 -31 15 -51 -20 -16 -65 -4 -65 17 0 13 3 14 12 5 15 -15 48 -16
48 -2 0 6 -11 15 -24 20 -32 12 -41 28 -26 45 16 20 44 19 61 -1z m97 4 c23
-23 14 -47 -20 -50 -38 -3 -40 -17 -3 -20 28 -2 33 -13 9 -22 -24 -9 -31 -8
-48 10 -21 20 -20 53 1 76 19 21 44 23 61 6z m175 3 c4 -1 7 -24 7 -52 0 -31
-4 -48 -10 -44 -5 3 -10 24 -10 46 0 33 -3 40 -17 37 -12 -2 -19 -14 -21 -38
-5 -53 -22 -62 -22 -12 0 29 -5 45 -15 49 -22 8 -29 -3 -27 -42 1 -18 -2 -36
-7 -39 -9 -6 -20 91 -12 100 3 3 104 -1 134 -5z m56 -54 c1 -22 5 -28 19 -25
12 2 18 15 20 46 2 23 8 42 13 42 6 0 9 -22 7 -52 -3 -50 -4 -52 -35 -55 -17
-2 -34 1 -38 7 -9 15 -15 82 -7 94 7 13 20 -22 21 -57z m149 51 c7 -7 12 -31
12 -53 0 -41 -1 -42 -35 -43 -25 -1 -38 4 -45 18 -12 23 10 50 41 50 12 0 17
4 13 11 -3 6 -17 8 -30 5 -25 -7 -34 8 -11 17 22 9 43 7 55 -5z m102 -33 c0
-38 3 -45 20 -45 17 0 20 7 20 39 0 22 5 43 10 46 6 4 10 -15 10 -49 0 -55 -1
-56 -28 -56 -15 0 -33 5 -40 12 -14 14 -16 98 -2 98 6 0 10 -20 10 -45z m228
32 c14 -11 17 -97 2 -97 -5 0 -10 18 -10 40 0 28 -5 43 -16 47 -21 8 -34 -13
-34 -55 0 -20 -4 -31 -10 -27 -5 3 -10 24 -10 46 0 33 -3 40 -17 37 -13 -2
-19 -15 -21 -46 -2 -23 -7 -40 -13 -37 -10 7 -13 88 -3 98 10 10 118 5 132 -6z
m52 -32 c0 -38 3 -45 20 -45 22 0 22 0 24 47 3 57 16 48 16 -10 l0 -57 -34 0
c-22 0 -36 6 -40 16 -10 25 -7 94 4 94 6 0 10 -20 10 -45z m140 36 c0 -5 -7
-11 -15 -15 -10 -3 -15 -19 -15 -46 0 -22 -4 -40 -10 -40 -11 0 -14 93 -3 103
10 10 43 8 43 -2z"/>
<g>
<path d="M466 3954 c-12 -11 -16 -35 -16 -85 0 -86 11 -109 50 -109 39 0 50
23 50 109 0 74 -13 101 -50 101 -10 0 -26 -7 -34 -16z"/>
</g>
<g>
<path d="M666 3948 c-19 -27 -21 -122 -3 -158 15 -30 58 -38 77 -15 18 21 18
158 0 179 -18 23 -56 20 -74 -6z"/>
</g>
<g>
<path d="M847 3964 c-16 -16 -7 -62 13 -67 24 -6 43 15 38 45 -3 23 -36 37
-51 22z"/>
</g>
<g>
<path d="M964 3805 c-8 -32 16 -61 41 -51 26 10 16 70 -12 74 -17 3 -24 -3
-29 -23z"/>
</g>
<g>
<path d="M2574 3530 c-33 -13 -81 -81 -102 -145 -29 -86 -36 -168 -20 -245
l14 -65 55 -3 c66 -3 74 5 110 109 16 50 19 76 14 119 -4 30 -8 92 -9 138 -1
97 -12 112 -62 92z"/>
</g>
<g>
<path d="M1300 3460 c-64 -66 -93 -283 -51 -390 16 -42 19 -45 51 -42 45 4 75
24 96 64 18 35 33 251 23 327 -10 74 -67 94 -119 41z"/>
</g>
<g>
<path d="M1968 3006 c-15 -6 -39 -22 -53 -34 -22 -19 -26 -30 -23 -65 3 -41 4
-42 40 -45 47 -4 65 20 74 101 7 60 5 63 -38 43z"/>
</g>
<g>
<path d="M794 3512 c-11 -7 -34 -45 -34 -56 0 -8 105 -8 113 0 7 8 -11 46 -27
56 -6 4 -18 8 -26 8 -8 0 -20 -4 -26 -8z"/>
</g>
<g>
<path d="M553 3488 c-6 -7 -13 -22 -15 -33 -4 -23 31 -31 81 -18 29 8 30 10
18 33 -14 28 -67 40 -84 18z"/>
</g>
<g>
<path d="M2252 2661 c-65 -65 -94 -266 -54 -370 22 -58 39 -68 90 -53 61 18
71 50 79 240 5 141 4 161 -12 185 -24 37 -64 36 -103 -2z"/>
</g>
<g>
<path d="M1630 2620 c-16 -17 -39 -57 -52 -88 -19 -49 -23 -75 -23 -177 1
-141 9 -165 60 -165 46 0 82 15 95 40 16 29 40 217 40 308 0 59 -4 76 -20 92
-29 29 -67 25 -100 -10z"/>
</g>
<g>
<path d="M2920 1903 c0 -6 13 -30 30 -54 16 -24 30 -56 30 -71 0 -21 5 -28 19
-28 11 0 36 -19 55 -42 42 -49 46 -41 11 21 -14 23 -25 47 -25 51 0 4 -27 36
-60 70 -33 34 -60 58 -60 53z m100 -123 c0 -5 -4 -10 -10 -10 -5 0 -10 5 -10
10 0 6 5 10 10 10 6 0 10 -4 10 -10z"/>
</g>
<g>
<path d="M245 170 c-4 -6 5 -10 20 -10 15 0 24 4 20 10 -3 6 -12 10 -20 10 -8
0 -17 -4 -20 -10z"/>
</g>
<g>
<path d="M630 124 c0 -9 7 -14 17 -12 25 5 28 28 4 28 -12 0 -21 -6 -21 -16z"/>
</g>
</g>
<g>
<path d="M3753 1339 l-37 -81 -71 -31 c-394 -173 -781 -460 -1287 -953 -76
-74 -142 -134 -147 -134 -5 0 -37 51 -71 114 -114 207 -293 424 -460 559 -105
84 -197 142 -325 203 -119 57 -164 73 -297 109 -48 13 -102 35 -121 49 -51 39
-161 85 -267 113 -81 22 -125 26 -292 30 -187 5 -200 4 -252 -17 -94 -38 -90
-46 26 -54 317 -22 559 -73 719 -151 30 -14 92 -42 138 -61 457 -191 842 -541
1056 -961 l36 -73 182 0 182 1 191 188 c199 195 388 367 534 486 47 38 87 72
90 76 13 15 256 194 350 257 58 38 161 102 230 141 69 39 131 74 139 79 33 19
-56 121 -146 166 -29 14 -55 26 -57 26 -3 0 -22 -36 -43 -81z"/>
</g>
<g>
<path d="M3895 1154 c-295 -162 -598 -392 -1015 -771 -80 -72 -201 -188 -270
-257 l-125 -126 773 0 772 0 0 610 c0 336 -3 610 -7 610 -5 0 -62 -30 -128
-66z"/>
</g>
</g>
</svg>
